<svg width="180" height="180" viewBox="0 0 180 180" fill="none" xmlns="http://www.w3.org/2000/svg">
<path d="M90 13.6364C85.6455 13.6364 82.5 16.7818 82.5 21.1364C82.5 25.4909 85.6455 28.6364 90 28.6364C94.3545 28.6364 97.5 25.4909 97.5 21.1364C97.5 16.7818 94.3545 13.6364 90 13.6364ZM42.5 36.4773C38.1455 36.4773 35 39.6227 35 44.0773C35 48.4318 38.1455 51.5773 42.5 51.5773C46.8545 51.5773 50 48.4318 50 44.0773C50 39.6227 46.8545 36.4773 42.5 36.4773ZM137.5 36.4773C133.145 36.4773 130 39.6227 130 44.0773C130 48.4318 133.145 51.5773 137.5 51.5773C141.855 51.5773 145 48.4318 145 44.0773C145 39.6227 141.855 36.4773 137.5 36.4773ZM90 43.9773C67.9409 43.9773 47.7727 56.9591 37.5 76.3636H142.5C132.227 56.9591 112.059 43.9773 90 43.9773ZM32.2727 91.3636C26.3 91.3636 21.6364 96.0273 21.6364 101.818C21.6364 107.609 26.3 112.273 32.2727 112.273H147.727C153.7 112.273 158.364 107.609 158.364 101.818C158.364 96.0273 153.7 91.3636 147.727 91.3636H32.2727ZM47.5 127.273C43.1455 127.273 40 130.418 40 134.773C40 139.127 43.1455 142.273 47.5 142.273C51.8545 142.273 55 139.127 55 134.773C55 130.418 51.8545 127.273 47.5 127.273ZM132.5 127.273C128.145 127.273 125 130.418 125 134.773C125 139.127 128.145 142.273 132.5 142.273C136.855 142.273 140 139.127 140 134.773C140 130.418 136.855 127.273 132.5 127.273ZM42.5 153.477C39.7455 153.477 37.5 155.723 37.5 158.477C37.5 161.232 39.7455 163.477 42.5 163.477H137.5C140.255 163.477 142.5 161.232 142.5 158.477C142.5 155.723 140.255 153.477 137.5 153.477H42.5Z" fill="url(#paint0_linear_1_2)"/>
<defs>
<linearGradient id="paint0_linear_1_2" x1="21.6364" y1="13.6364" x2="158.364" y2="163.477" gradientUnits="userSpaceOnUse">
<stop stop-color="#14B8A6"/>
<stop offset="1" stop-color="#3B82F6"/>
</linearGradient>
</defs>
</svg>

