<svg width="200" height="200" viewBox="0 0 200 200" fill="none" xmlns="http://www.w3.org/2000/svg">
  <path d="M100 20C95.6455 20 92.5 23.1455 92.5 27.5C92.5 31.8545 95.6455 35 100 35C104.355 35 107.5 31.8545 107.5 27.5C107.5 23.1455 104.355 20 100 20Z" fill="#C27D5B" opacity="0.7"/>
  <path d="M52.5 42.5C48.1455 42.5 45 45.6455 45 50C45 54.3545 48.1455 57.5 52.5 57.5C56.8545 57.5 60 54.3545 60 50C60 45.6455 56.8545 42.5 52.5 42.5Z" fill="#94A187" opacity="0.7"/>
  <path d="M147.5 42.5C143.145 42.5 140 45.6455 140 50C140 54.3545 143.145 57.5 147.5 57.5C151.855 57.5 155 54.3545 155 50C155 45.6455 151.855 42.5 147.5 42.5Z" fill="#94A187" opacity="0.7"/>
  <path d="M100 50C77.9409 50 57.7727 63 47.5 82.5H152.5C142.227 63 122.059 50 100 50Z" fill="#D1A38E" opacity="0.5"/>
  <path d="M42.2727 97.5C36.3 97.5 31.6364 102.164 31.6364 108.136C31.6364 114.109 36.3 118.773 42.2727 118.773H157.727C163.7 118.773 168.364 114.109 168.364 108.136C168.364 102.164 163.7 97.5 157.727 97.5H42.2727Z" fill="#7A8B6F" opacity="0.5"/>
  <path d="M57.5 133.5C53.1455 133.5 50 136.645 50 141C50 145.355 53.1455 148.5 57.5 148.5C61.8545 148.5 65 145.355 65 141C65 136.645 61.8545 133.5 57.5 133.5Z" fill="#E8D0B3" opacity="0.7"/>
  <path d="M142.5 133.5C138.145 133.5 135 136.645 135 141C135 145.355 138.145 148.5 142.5 148.5C146.855 148.5 150 145.355 150 141C150 136.645 146.855 133.5 142.5 133.5Z" fill="#E8D0B3" opacity="0.7"/>
  <path d="M52.5 160C49.7455 160 47.5 162.245 47.5 165C47.5 167.755 49.7455 170 52.5 170H147.5C150.255 170 152.5 167.755 152.5 165C152.5 162.245 150.255 160 147.5 160H52.5Z" fill="#B6B6A6" opacity="0.7"/>
</svg>

