<svg width="500" height="500" viewBox="0 0 500 500" fill="none" xmlns="http://www.w3.org/2000/svg">
  <g opacity="0.5">
    <path d="M50 50C45.6455 50 42.5 53.1455 42.5 57.5C42.5 61.8545 45.6455 65 50 65C54.3545 65 57.5 61.8545 57.5 57.5C57.5 53.1455 54.3545 50 50 50Z" fill="currentColor"/>
    <path d="M150 50C145.645 50 142.5 53.1455 142.5 57.5C142.5 61.8545 145.645 65 150 65C154.355 65 157.5 61.8545 157.5 57.5C157.5 53.1455 154.355 50 150 50Z" fill="currentColor"/>
    <path d="M250 50C245.645 50 242.5 53.1455 242.5 57.5C242.5 61.8545 245.645 65 250 65C254.355 65 257.5 61.8545 257.5 57.5C257.5 53.1455 254.355 50 250 50Z" fill="currentColor"/>
    <path d="M350 50C345.645 50 342.5 53.1455 342.5 57.5C342.5 61.8545 345.645 65 350 65C354.355 65 357.5 61.8545 357.5 57.5C357.5 53.1455 354.355 50 350 50Z" fill="currentColor"/>
    <path d="M450 50C445.645 50 442.5 53.1455 442.5 57.5C442.5 61.8545 445.645 65 450 65C454.355 65 457.5 61.8545 457.5 57.5C457.5 53.1455 454.355 50 450 50Z" fill="currentColor"/>
    
    <path d="M50 150C45.6455 150 42.5 153.145 42.5 157.5C42.5 161.855 45.6455 165 50 165C54.3545 165 57.5 161.855 57.5 157.5C57.5 153.145 54.3545 150 50 150Z" fill="currentColor"/>
    <path d="M150 150C145.645 150 142.5 153.145 142.5 157.5C142.5 161.855 145.645 165 150 165C154.355 165 157.5 161.855 157.5 157.5C157.5 153.145 154.355 150 150 150Z" fill="currentColor"/>
    <path d="M250 150C245.645 150 242.5 153.145 242.5 157.5C242.5 161.855 245.645 165 250 165C254.355 165 257.5 161.855 257.5 157.5C257.5 153.145 254.355 150 250 150Z" fill="currentColor"/>
    <path d="M350 150C345.645 150 342.5 153.145 342.5 157.5C342.5 161.855 345.645 165 350 165C354.355 165 357.5 161.855 357.5 157.5C357.5 153.145 354.355 150 350 150Z" fill="currentColor"/>
    <path d="M450 150C445.645 150 442.5 153.145 442.5 157.5C442.5 161.855 445.645 165 450 165C454.355 165 457.5 161.855 457.5 157.5C457.5 153.145 454.355 150 450 150Z" fill="currentColor"/>
    
    <path d="M50 250C45.6455 250 42.5 253.145 42.5 257.5C42.5 261.855 45.6455 265 50 265C54.3545 265 57.5 261.855 57.5 257.5C57.5 253.145 54.3545 250 50 250Z" fill="currentColor"/>
    <path d="M150 250C145.645 250 142.5 253.145 142.5 257.5C142.5 261.855 145.645 265 150 265C154.355 265 157.5 261.855 157.5 257.5C157.5 253.145 154.355 250 150 250Z" fill="currentColor"/>
    <path d="M250 250C245.645 250 242.5 253.145 242.5 257.5C242.5 261.855 245.645 265 250 265C254.355 265 257.5 261.855 257.5 257.5C257.5 253.145 254.355 250 250 250Z" fill="currentColor"/>
    <path d="M350 250C345.645 250 342.5 253.145 342.5 257.5C342.5 261.855 345.645 265 350 265C354.355 265 357.5 261.855 357.5 257.5C357.5 253.145 354.355 250 350 250Z" fill="currentColor"/>
    <path d="M450 250C445.645 250 442.5 253.145 442.5 257.5C442.5 261.855 445.645 265 450 265C454.355 265 457.5 261.855 457.5 257.5C457.5 253.145 454.355 250 450 250Z" fill="currentColor"/>
    
    <path d="M50 350C45.6455 350 42.5 353.145 42.5 357.5C42.5 361.855 45.6455 365 50 365C54.3545 365 57.5 361.855 57.5 357.5C57.5 353.145 54.3545 350 50 350Z" fill="currentColor"/>
    <path d="M150 350C145.645 350 142.5 353.145 142.5 357.5C142.5 361.855 145.645 365 150 365C154.355 365 157.5 361.855 157.5 357.5C157.5 353.145 154.355 350 150 350Z" fill="currentColor"/>
    <path d="M250 350C245.645 350 242.5 353.145 242.5 357.5C242.5 361.855 245.645 365 250 365C254.355 365 257.5 361.855 257.5 357.5C257.5 353.145 254.355 350 250 350Z" fill="currentColor"/>
    <path d="M350 350C345.645 350 342.5 353.145 342.5 357.5C342.5 361.855 345.645 365 350 365C354.355 365 357.5 361.855 357.5 357.5C357.5 353.145 354.355 350 350 350Z" fill="currentColor"/>
    <path d="M450 350C445.645 350 442.5 353.145 442.5 357.5C442.5 361.855 445.645 365 450 365C454.355 365 457.5 361.855 457.5 357.5C457.5 353.145 454.355 350 450 350Z" fill="currentColor"/>
    
    <path d="M50 450C45.6455 450 42.5 453.145 42.5 457.5C42.5 461.855 45.6455 465 50 465C54.3545 465 57.5 461.855 57.5 457.5C57.5 453.145 54.3545 450 50 450Z" fill="currentColor"/>
    <path d="M150 450C145.645 450 142.5 453.145 142.5 457.5C142.5 461.855 145.645 465 150 465C154.355 465 157.5 461.855 157.5 457.5C157.5 453.145 154.355 450 150 450Z" fill="currentColor"/>
    <path d="M250 450C245.645 450 242.5 453.145 242.5 457.5C242.5 461.855 245.645 465 250 465C254.355 465 257.5 461.855 257.5 457.5C257.5 453.145 254.355 450 250 450Z" fill="currentColor"/>
    <path d="M350 450C345.645 450 342.5 453.145 342.5 457.5C342.5 461.855 345.645 465 350 465C354.355 465 357.5 461.855 357.5 457.5C357.5 453.145 354.355 450 350 450Z" fill="currentColor"/>
    <path d="M450 450C445.645 450 442.5 453.145 442.5 457.5C442.5 461.855 445.645 465 450 465C454.355 465 457.5 461.855 457.5 457.5C457.5 453.145 454.355 450 450 450Z" fill="currentColor"/>
    
    <path d="M100 100C95.6455 100 92.5 103.145 92.5 107.5C92.5 111.855 95.6455 115 100 115C104.355 115 107.5 111.855 107.5 107.5C107.5 103.145 104.355 100 100 100Z" fill="currentColor"/>
    <path d="M200 100C195.645 100 192.5 103.145 192.5 107.5C192.5 111.855 195.645 115 200 115C204.355 115 207.5 111.855 207.5 107.5C207.5 103.145 204.355 100 200 100Z" fill="currentColor"/>
    <path d="M300 100C295.645 100 292.5 103.145 292.5 107.5C292.5 111.855 295.645 115 300 115C304.355 115 307.5 111.855 307.5 107.5C307.5 103.145 304.355 100 300 100Z" fill="currentColor"/>
    <path d="M400 100C395.645 100 392.5 103.145 392.5 107.5C392.5 111.855 395.645 115 400 115C404.355 115 407.5 111.855 407.5 107.5C407.5 103.145 404.355 100 400 100Z" fill="currentColor"/>
    
    <path d="M100 200C95.6455 200 92.5 203.145 92.5 207.5C92.5 211.855 95.6455 215 100 215C104.355 215 107.5 211.855 107.5 207.5C107.5 203.145 104.355 200 100 200Z" fill="currentColor"/>
    <path d="M200 200C195.645 200 192.5 203.145 192.5 207.5C192.5 211.855 195.645 215 200 215C204.355 215 207.5 211.855 207.5 207.5C207.5 203.145 204.355 200 200 200Z" fill="currentColor"/>
    <path d="M300 200C295.645 200 292.5 203.145 292.5 207.5C292.5 211.855 295.645 215 300 215C304.355 215 307.5 211.855 307.5 207.5C307.5 203.145 304.355 200 300 200Z" fill="currentColor"/>
    <path d="M400 200C395.645 200 392.5 203.145 392.5 207.5C392.5 211.855 395.645 215 400 215C404.355 215 407.5 211.855 407.5 207.5C407.5 203.145 404.355 200 400 200Z" fill="currentColor"/>
    
    <path d="M100 300C95.6455 300 92.5 303.145 92.5 307.5C92.5 311.855 95.6455 315 100 315C104.355 315 107.5 311.855 107.5 307.5C107.5 303.145 104.355 300 100 300Z" fill="currentColor"/>
    <path d="M200 300C195.645 300 192.5 303.145 192.5 307.5C192.5 311.855 195.645 315 200 315C204.355 315 207.5 311.855 207.5 307.5C207.5 303.145 204.355 300 200 300Z" fill="currentColor"/>
    <path d="M300 300C295.645 300 292.5 303.145 292.5 307.5C292.5 311.855 295.645 315 300 315C304.355 315 307.5 311.855 307.5 307.5C307.5 303.145 304.355 300 300 300Z" fill="currentColor"/>
    <path d="M400 300C395.645 300 392.5 303.145 392.5 307.5C392.5 311.855 395.645 315 400 315C404.355 315 307.5 311.855 307.5 307.5C307.5 303.145 304.355 300 400 300Z" fill="currentColor"/>
    
    <path d="M100 400C95.6455 400 92.5 403.145 92.5 407.5C92.5 411.855 95.6455 415 100 415C104.355 415 107.5 411.855 107.5 407.5C107.5 403.145 104.355 400 100 400Z" fill="currentColor"/>
    <path d="M200 400C195.645 400 192.5 403.145 192.5 407.5C192.5 411.855 195.645 415 200 415C204.355 415 207.5 411.855 207.5 407.5C207.5 403.145 204.355 400 200 400Z" fill="currentColor"/>
    <path d="M300 400C295.645 400 292.5 403.145 292.5 407.5C292.5 411.855 295.645 415 300 415C304.355 415 307.5 411.855 307.5 407.5C307.5 403.145 304.355 400 300 400Z" fill="currentColor"/>
    <path d="M400 400C395.645 400 392.5 403.145 392.5 407.5C392.5 411.855 395.645 415 400 415C404.355 415 407.5 411.855 407.5 407.5C407.5 403.145 404.355 400 400 400Z" fill="currentColor"/>
  </g>
</svg>

